{"title":"Vikings S02E06 HDTV x264 AAC E-Subs [GWC].mp4","uid":9888652,"size":132767350,"categoryP":"video","categoryS":"tv_shows","magnet":"?xt=urn:btih:b1f9e3201c59730e94ae4468bfceca47b73bb819&amp;dn=Vikings+S02E06+HDTV+x264+AAC+E-Subs+%5BGWC%5D.mp4&amp;tr=udp%3A%2F%2Ftracker.openbittorrent.com%3A80&amp;tr=udp%3A%2F%2Fopen.demonii.com%3A1337&amp;tr=udp%3A%2F%2Ftracker.coppersurfer.tk%3A6969&amp;tr=udp%3A%2F%2Fexodus.desync.com%3A6969","seeders":2,"leechers":0,"uploader":"canc232","files":1,"time":1396612749,"description":"Vikings S02E06 HDTV x264 AAC E-Subs [GWC]\n\n\nSTORYLINE :\nVikings follows the adventures of Ragnar Lothbrok: the greatest hero of his age. The series tells the saga of Ragnar's band of Viking brothers and his family as he rises to become King of the Viking tribes. As well as being a fearless warrior, Ragnar embodies the Norse traditions of devotion to the gods: legend has it that he was a direct descendant of Odin, the god of war and warriors.\n\n\nSCREENS : &lt;a href=&quot;\nhttp://i.imgur.com/iWxHOma.jpg&quot; rel=&quot;nofollow&quot; target=&quot;_NEW&quot;&gt;\nhttp://i.imgur.com/iWxHOma.jpg&lt;/a&gt; &lt;a href=&quot;\nhttp://i.imgur.com/D3zUbOB.jpg&quot; rel=&quot;nofollow&quot; target=&quot;_NEW&quot;&gt;\nhttp://i.imgur.com/D3zUbOB.jpg&lt;/a&gt; &lt;a href=&quot;\nhttp://i.imgur.com/19yc9kD.jpg&quot; rel=&quot;nofollow&quot; target=&quot;_NEW&quot;&gt;\nhttp://i.imgur.com/19yc9kD.jpg&lt;/a&gt;\n\n\nMEDIA INFO :\nGeneral \nFormat : MPEG-4 \nFormat profile : Base Media \nFile size : 127 MiB \nDuration : 43mn 59s \nOverall bit rate mode : Variable \nOverall bit rate : 402 Kbps \n\nVideo \nFormat : AVC \nFormat profile : &lt;a class=&quot;__cf_email__&quot; href=&quot;/cdn-cgi/l/email-protection&quot; data-cfemail=&quot;723a1b151a323e415c42&quot;&gt;[email&amp;#160;protected]&lt;/a&gt;&lt;script cf-hash='f9e31' type=&quot;text/javascript&quot;&gt;\n/* &lt;![CDATA[ */!function(){try{var t=&quot;currentScript&quot;in document?document.currentScript:function(){for(var t=document.getElementsByTagName(&quot;script&quot;),e=t.length;e--;)if(t[e].getAttribute(&quot;cf-hash&quot;))return t[e]}();if(t&amp;&amp;t.previousSibling){var e,r,n,i,c=t.previousSibling,a=c.getAttribute(&quot;data-cfemail&quot;);if(a){for(e=&quot;&quot;,r=parseInt(a.substr(0,2),16),n=2;a.length-n;n+=2)i=parseInt(a.substr(n,2),16)^r,e+=String.fromCharCode(i);e=document.createTextNode(e),c.parentNode.replaceChild(e,c)}}}catch(u){}}();/* ]]&gt; */&lt;/script&gt; \nFormat settings, CABAC : Yes \nFormat settings, ReFrames : 4 frames \nDuration : 43mn 59s \nBit rate : 339 Kbps \nMaximum bit rate : 1 810 Kbps \nWidth : 720 pixels \nHeight : 404 pixels \nDisplay aspect ratio : 16:9 \nFrame rate : 23.976 fps \nStream size : 107 MiB (84%) \nTitle : Vikings S02E06 HDTV x264 AAC E-Subs [GWC] \nWriting library : x264 core \n\nAudio \nFormat : AAC \nFormat profile : HE-AAC / LC \nDuration : 43mn 59s \nBit rate mode : Variable \nChannel(s) : 2 channels \nSampling rate : 48.0 KHz / 24.0 KHz \nStream size : 18.9 MiB (15%) \nLanguage : English \n\nText \nFormat : Timed Text \nLanguage : English \n","torrent":{"xt":"urn:btih:b1f9e3201c59730e94ae4468bfceca47b73bb819","amp;dn":"Vikings+S02E06+HDTV+x264+AAC+E-Subs+%5BGWC%5D.mp4","amp;tr":["udp%3A%2F%2Ftracker.openbittorrent.com%3A80","udp%3A%2F%2Fopen.demonii.com%3A1337","udp%3A%2F%2Ftracker.coppersurfer.tk%3A6969","udp%3A%2F%2Fexodus.desync.com%3A6969"],"infoHash":"b1f9e3201c59730e94ae4468bfceca47b73bb819","infoHashBuffer":{"type":"Buffer","data":[177,249,227,32,28,89,115,14,148,174,68,104,191,206,202,71,183,59,184,25]},"announce":[],"urlList":[]}}